<svg version="1.1" id="Layer_1" xmlns="http://www.w3.org/2000/svg" xmlns:xlink="http://www.w3.org/1999/xlink" x="0px" y="0px"
	 width="100%" viewBox="0 0 500 500" enable-background="new 0 0 500 500" xml:space="preserve">
<path fill="#FFFFFF" opacity="1.000000" stroke="none" 
	d="
M450.000000,501.000000 
	C300.000031,501.000000 150.500076,501.000000 1.000080,501.000000 
	C1.000053,334.333405 1.000053,167.666824 1.000027,1.000170 
	C167.666550,1.000113 334.333099,1.000113 500.999756,1.000057 
	C500.999817,167.666519 500.999817,334.333038 500.999908,500.999756 
	C484.166656,501.000000 467.333344,501.000000 450.000000,501.000000 
M170.667450,270.954926 
	C172.280350,270.954926 173.893250,270.954926 176.051407,270.954926 
	C176.051407,268.675629 175.991867,266.882874 176.063385,265.095337 
	C176.229050,260.954742 176.312180,256.802734 176.706711,252.681961 
	C177.034515,249.258133 179.529160,247.297821 182.555176,248.274948 
	C184.146423,248.788773 185.747040,251.764069 185.907379,253.744156 
	C186.358353,259.313782 186.064774,264.943695 186.064774,270.604370 
	C188.925156,270.604370 191.128922,270.604370 193.789490,270.604370 
	C193.789490,264.906647 193.727356,259.605286 193.811111,254.306198 
	C193.867935,250.710403 195.386017,248.049561 199.364487,248.055710 
	C203.583389,248.062225 203.216217,251.332977 203.221695,254.181488 
	C203.232178,259.627960 203.224747,265.074432 203.224747,270.627167 
	C206.080414,270.627167 208.290863,270.627167 210.834778,270.627167 
	C210.834778,263.456024 211.082870,256.648926 210.760208,249.869003 
	C210.476471,243.906662 205.876282,240.504639 200.044220,241.867203 
	C197.454636,242.472214 195.120148,244.169067 192.533630,245.437119 
	C187.066910,240.267761 182.878098,240.144348 176.270615,245.221542 
	C175.479095,240.478882 172.215042,242.347290 169.777664,242.379776 
	C169.777664,252.049484 169.777664,261.400787 170.667450,270.954926 
M268.358398,240.602432 
	C268.358398,250.559250 268.358398,260.516052 268.358398,270.670624 
	C271.330719,270.670624 273.711548,270.670624 276.680847,270.670624 
	C276.680847,265.433289 276.680847,260.515228 276.680847,255.508926 
	C282.010986,254.596619 285.376648,255.920502 286.649567,260.991882 
	C287.053711,262.602112 287.831635,264.134155 288.107117,265.758179 
	C289.003723,271.043640 292.128021,272.027832 297.699249,270.146698 
	C295.288940,264.079895 292.905334,258.080292 290.436890,251.867111 
	C295.151733,248.735626 296.641724,246.174637 295.858765,241.258575 
	C295.184662,237.025970 292.642792,233.807159 288.534760,233.443497 
	C282.008087,232.865738 275.392761,233.289337 268.359222,233.289337 
	C268.359222,235.699310 268.359222,237.668289 268.358398,240.602432 
M113.353477,267.227661 
	C109.793144,256.842773 106.143005,246.487289 102.730225,236.054153 
	C101.775368,233.135086 99.913406,232.671585 97.400589,232.982971 
	C94.863441,233.297424 91.797699,231.698807 90.537804,235.910141 
	C88.442245,242.914856 85.773102,249.747009 83.385880,256.665771 
	C81.826881,261.184113 80.339218,265.727081 78.777847,270.383484 
	C83.901627,271.881317 87.386055,271.459900 88.226830,265.643677 
	C88.380890,264.577942 89.672882,262.909851 90.538521,262.845245 
	C94.507858,262.548981 98.648926,262.136810 102.436989,263.018311 
	C103.952400,263.370911 104.305374,267.390564 105.950714,268.919830 
	C107.350945,270.221252 109.818520,270.544067 111.879318,270.832733 
	C112.333099,270.896271 113.063004,268.988342 113.353477,267.227661 
M410.035461,248.319733 
	C411.016388,250.614456 412.643341,252.853973 412.845123,255.215286 
	C413.278809,260.290588 412.978302,265.428589 412.978302,270.611206 
	C415.796692,270.611206 417.992523,270.611206 419.996552,270.611206 
	C419.996552,263.247589 420.479889,256.248352 419.852203,249.350220 
	C419.293579,243.211212 414.159332,240.335678 408.144470,241.995605 
	C406.141052,242.548477 404.283264,243.629181 401.683655,244.763123 
	C401.683655,239.818314 401.683655,235.281189 401.683655,230.819641 
	C398.841370,230.819641 396.629944,230.819641 394.478760,230.819641 
	C394.478760,244.366699 394.478760,257.457733 394.478760,270.617645 
	C397.040771,270.617645 399.248962,270.617645 401.881042,270.617645 
	C401.881042,265.253693 401.771942,260.279419 401.910828,255.312057 
	C402.058350,250.037384 403.762512,248.472336 410.035461,248.319733 
M303.587769,248.364975 
	C303.131714,252.746597 301.951965,257.203278 302.396667,261.491486 
	C302.998260,267.292847 307.987579,271.002289 314.301270,271.721497 
	C320.657898,272.445587 325.247803,270.060303 327.668182,264.702667 
	C325.398865,262.314087 323.433594,261.433014 320.152100,263.899506 
	C318.483063,265.154022 315.060089,264.835693 312.734314,264.168152 
	C311.358459,263.773285 310.576416,261.309357 309.395630,259.583313 
	C310.823792,258.995422 311.123657,258.767426 311.426910,258.762939 
	C315.743683,258.698486 320.070587,258.468597 324.375122,258.681702 
	C328.148010,258.868439 328.936157,257.051941 328.625610,253.820297 
	C328.031311,247.635696 325.350220,243.625854 320.729187,242.282471 
	C313.983978,240.321579 308.228790,242.188797 303.587769,248.364975 
M356.698853,258.444427 
	C356.553528,255.295959 357.118622,251.878128 356.056610,249.077225 
	C355.058929,246.446091 352.744446,243.242828 350.303345,242.441101 
	C344.177826,240.429352 338.214447,241.675995 333.204681,246.967468 
	C334.289673,248.460007 335.306488,249.858719 335.998627,250.810852 
	C339.431213,249.679596 342.175720,248.449234 345.043854,247.988754 
	C346.206451,247.802109 347.638458,249.293457 348.947876,250.021240 
	C347.933533,251.076752 347.105194,252.599777 345.866913,253.092438 
	C343.115631,254.187073 340.097717,254.594559 337.301361,255.596985 
	C333.677795,256.895966 332.242340,259.940338 332.502686,263.519684 
	C332.773926,267.248627 334.514130,270.749054 338.548492,271.004700 
	C342.323639,271.243958 346.186218,270.103912 350.829895,269.456635 
	C352.077301,269.823822 354.464630,270.724060 356.933746,271.147156 
	C357.807007,271.296753 359.569366,270.433167 359.715149,269.767120 
	C360.002716,268.453400 359.834747,265.960144 359.170868,265.699829 
	C355.812256,264.382812 356.911285,261.695160 356.698853,258.444427 
M142.748703,249.596161 
	C142.748703,247.197464 142.748703,244.798767 142.748703,242.419800 
	C139.748245,242.419800 137.664032,242.419800 135.202347,242.419800 
	C135.202347,249.851074 134.762558,256.994476 135.332458,264.056366 
	C135.848877,270.455658 143.191086,273.780182 149.050644,270.793610 
	C150.331985,270.140564 151.453339,269.173645 152.648376,268.351257 
	C152.603363,268.825775 152.558350,269.300293 152.513336,269.774811 
	C155.030838,270.296844 157.548340,270.818909 160.416595,271.413696 
	C160.416595,261.110168 160.416595,251.765213 160.416595,242.397156 
	C157.891174,242.397156 155.800125,242.397156 153.127716,242.397156 
	C153.127716,245.136719 153.150787,247.589447 153.122070,250.041550 
	C153.083145,253.364853 153.298340,256.726990 152.860794,259.999756 
	C152.417664,263.314331 150.366592,265.283325 146.675919,265.149536 
	C142.764053,265.007721 142.767395,262.306152 142.756149,259.542053 
	C142.743958,256.548584 142.750015,253.555069 142.748703,249.596161 
M244.704483,269.034332 
	C244.703217,263.204987 244.962143,257.361084 244.636536,251.549927 
	C244.204498,243.838959 238.803116,240.020065 231.616959,242.167755 
	C229.675583,242.747955 227.974182,244.131042 226.163864,245.144897 
	C224.616638,241.538986 224.574295,241.525055 218.308044,242.869568 
	C218.308044,250.703659 218.293198,258.663208 218.323013,266.622589 
	C218.327866,267.917480 218.530426,269.211670 218.652893,270.637329 
	C221.135452,270.637329 223.346588,270.637329 226.049057,270.637329 
	C226.049057,264.971649 225.830261,259.657928 226.121048,254.372208 
	C226.337997,250.429001 228.437256,247.749939 232.850098,248.015640 
	C237.118576,248.272629 237.093323,251.446533 237.084061,254.564957 
	C237.068359,259.853149 237.079758,265.141418 237.079758,271.412201 
	C240.024918,270.820038 242.282150,270.366211 244.704483,269.034332 
M388.972198,264.361481 
	C387.239380,260.944916 385.454102,259.271118 382.157776,263.157227 
	C379.816132,265.917847 376.496002,265.923004 373.574982,263.892151 
	C369.784058,261.256531 369.820068,251.436249 373.914764,249.251053 
	C375.841766,248.222672 378.864288,248.854385 381.271484,249.332657 
	C382.107849,249.498840 382.585907,251.468719 383.203156,252.571075 
	C385.902405,250.597946 387.445465,249.470001 390.183350,247.468658 
	C386.788483,245.293259 384.484406,243.092102 381.755829,242.221970 
	C376.378021,240.507080 371.097595,241.382645 367.097229,245.717072 
	C362.762177,250.414230 362.259399,256.085510 363.988770,262.034698 
	C365.732758,268.034332 370.110870,271.099335 376.015259,271.657043 
	C381.455902,272.170990 386.262573,270.629700 388.972198,264.361481 
M126.076996,254.413208 
	C126.076996,246.638107 126.076996,238.863007 126.076996,230.747406 
	C123.568726,230.747406 121.520775,230.747406 119.065025,230.747406 
	C119.065025,242.466812 118.919052,253.890976 119.144600,265.307800 
	C119.223015,269.277527 123.022842,272.045441 127.196053,271.702576 
	C128.371140,271.606018 130.225967,270.949280 130.453293,270.167084 
	C130.818024,268.912140 130.487854,266.356262 129.753784,266.056122 
	C124.265839,263.812042 126.588837,259.148560 126.076996,254.413208 
M259.880951,263.410675 
	C259.880951,256.469940 259.880951,249.529205 259.880951,242.454453 
	C257.000336,242.454453 254.790588,242.454453 252.451614,242.454453 
	C252.451614,252.073334 252.451614,261.306793 252.451614,270.654114 
	C255.005356,270.654114 257.220306,270.654114 259.880768,270.654114 
	C259.880768,268.313751 259.880768,266.347351 259.880951,263.410675 
M251.478760,235.252518 
	C252.364120,238.413864 254.648712,239.788742 257.490967,238.550842 
	C258.895966,237.938873 260.639465,235.297287 260.296173,234.155258 
	C259.816711,232.560242 257.355469,230.326660 256.057068,230.516754 
	C254.338120,230.768433 252.923386,233.097916 251.478760,235.252518 
z"/>
<path fill="#CC70E7" opacity="1.000000" stroke="none" 
	d="
M170.222565,270.853516 
	C169.777664,261.400787 169.777664,252.049484 169.777664,242.379776 
	C172.215042,242.347290 175.479095,240.478882 176.270615,245.221542 
	C182.878098,240.144348 187.066910,240.267761 192.533630,245.437119 
	C195.120148,244.169067 197.454636,242.472214 200.044220,241.867203 
	C205.876282,240.504639 210.476471,243.906662 210.760208,249.869003 
	C211.082870,256.648926 210.834778,263.456024 210.834778,270.627167 
	C208.290863,270.627167 206.080414,270.627167 203.224747,270.627167 
	C203.224747,265.074432 203.232178,259.627960 203.221695,254.181488 
	C203.216217,251.332977 203.583389,248.062225 199.364487,248.055710 
	C195.386017,248.049561 193.867935,250.710403 193.811111,254.306198 
	C193.727356,259.605286 193.789490,264.906647 193.789490,270.604370 
	C191.128922,270.604370 188.925156,270.604370 186.064774,270.604370 
	C186.064774,264.943695 186.358353,259.313782 185.907379,253.744156 
	C185.747040,251.764069 184.146423,248.788773 182.555176,248.274948 
	C179.529160,247.297821 177.034515,249.258133 176.706711,252.681961 
	C176.312180,256.802734 176.229050,260.954742 176.063385,265.095337 
	C175.991867,266.882874 176.051407,268.675629 176.051407,270.954926 
	C173.893250,270.954926 172.280350,270.954926 170.222565,270.853516 
z"/>
<path fill="#CC6FE6" opacity="1.000000" stroke="none" 
	d="
M268.358826,240.119843 
	C268.359222,237.668289 268.359222,235.699310 268.359222,233.289337 
	C275.392761,233.289337 282.008087,232.865738 288.534760,233.443497 
	C292.642792,233.807159 295.184662,237.025970 295.858765,241.258575 
	C296.641724,246.174637 295.151733,248.735626 290.436890,251.867111 
	C292.905334,258.080292 295.288940,264.079895 297.699249,270.146698 
	C292.128021,272.027832 289.003723,271.043640 288.107117,265.758179 
	C287.831635,264.134155 287.053711,262.602112 286.649567,260.991882 
	C285.376648,255.920502 282.010986,254.596619 276.680847,255.508926 
	C276.680847,260.515228 276.680847,265.433289 276.680847,270.670624 
	C273.711548,270.670624 271.330719,270.670624 268.358398,270.670624 
	C268.358398,260.516052 268.358398,250.559250 268.358826,240.119843 
M284.805603,248.934494 
	C288.213196,247.917526 289.177368,245.536301 288.180878,242.364487 
	C287.035156,238.717621 283.473999,237.967072 276.352356,239.740097 
	C276.352356,242.624985 276.352356,245.544495 276.352356,249.025497 
	C279.058868,249.025497 281.507965,249.025497 284.805603,248.934494 
z"/>
<path fill="#CC70E7" opacity="1.000000" stroke="none" 
	d="
M113.509613,267.607971 
	C113.063004,268.988342 112.333099,270.896271 111.879318,270.832733 
	C109.818520,270.544067 107.350945,270.221252 105.950714,268.919830 
	C104.305374,267.390564 103.952400,263.370911 102.436989,263.018311 
	C98.648926,262.136810 94.507858,262.548981 90.538521,262.845245 
	C89.672882,262.909851 88.380890,264.577942 88.226830,265.643677 
	C87.386055,271.459900 83.901627,271.881317 78.777847,270.383484 
	C80.339218,265.727081 81.826881,261.184113 83.385880,256.665771 
	C85.773102,249.747009 88.442245,242.914856 90.537804,235.910141 
	C91.797699,231.698807 94.863441,233.297424 97.400589,232.982971 
	C99.913406,232.671585 101.775368,233.135086 102.730225,236.054153 
	C106.143005,246.487289 109.793144,256.842773 113.509613,267.607971 
M94.144257,246.773270 
	C93.328377,249.574402 92.512497,252.375519 91.571480,255.606262 
	C95.076599,255.606262 97.917831,255.606262 101.602303,255.606262 
	C99.909157,250.485535 98.407051,245.942581 96.473351,240.094345 
	C95.465469,243.007385 94.939720,244.526917 94.144257,246.773270 
z"/>
<path fill="#CE74E7" opacity="1.000000" stroke="none" 
	d="
M409.641541,248.209229 
	C403.762512,248.472336 402.058350,250.037384 401.910828,255.312057 
	C401.771942,260.279419 401.881042,265.253693 401.881042,270.617645 
	C399.248962,270.617645 397.040771,270.617645 394.478760,270.617645 
	C394.478760,257.457733 394.478760,244.366699 394.478760,230.819641 
	C396.629944,230.819641 398.841370,230.819641 401.683655,230.819641 
	C401.683655,235.281189 401.683655,239.818314 401.683655,244.763123 
	C404.283264,243.629181 406.141052,242.548477 408.144470,241.995605 
	C414.159332,240.335678 419.293579,243.211212 419.852203,249.350220 
	C420.479889,256.248352 419.996552,263.247589 419.996552,270.611206 
	C417.992523,270.611206 415.796692,270.611206 412.978302,270.611206 
	C412.978302,265.428589 413.278809,260.290588 412.845123,255.215286 
	C412.643341,252.853973 411.016388,250.614456 409.641541,248.209229 
z"/>
<path fill="#CC70E7" opacity="1.000000" stroke="none" 
	d="
M303.791748,248.038239 
	C308.228790,242.188797 313.983978,240.321579 320.729187,242.282471 
	C325.350220,243.625854 328.031311,247.635696 328.625610,253.820297 
	C328.936157,257.051941 328.148010,258.868439 324.375122,258.681702 
	C320.070587,258.468597 315.743683,258.698486 311.426910,258.762939 
	C311.123657,258.767426 310.823792,258.995422 309.395630,259.583313 
	C310.576416,261.309357 311.358459,263.773285 312.734314,264.168152 
	C315.060089,264.835693 318.483063,265.154022 320.152100,263.899506 
	C323.433594,261.433014 325.398865,262.314087 327.668182,264.702667 
	C325.247803,270.060303 320.657898,272.445587 314.301270,271.721497 
	C307.987579,271.002289 302.998260,267.292847 302.396667,261.491486 
	C301.951965,257.203278 303.131714,252.746597 303.791748,248.038239 
M314.672119,253.874146 
	C316.635406,253.874146 318.598694,253.874146 320.572784,253.874146 
	C321.785553,249.462021 319.698395,247.436188 316.311371,247.283966 
	C312.431702,247.109634 309.868317,249.211090 309.594452,253.684387 
	C311.176453,253.755569 312.491180,253.814713 314.672119,253.874146 
z"/>
<path fill="#CD71E7" opacity="1.000000" stroke="none" 
	d="
M356.698547,258.914490 
	C356.911285,261.695160 355.812256,264.382812 359.170868,265.699829 
	C359.834747,265.960144 360.002716,268.453400 359.715149,269.767120 
	C359.569366,270.433167 357.807007,271.296753 356.933746,271.147156 
	C354.464630,270.724060 352.077301,269.823822 350.829895,269.456635 
	C346.186218,270.103912 342.323639,271.243958 338.548492,271.004700 
	C334.514130,270.749054 332.773926,267.248627 332.502686,263.519684 
	C332.242340,259.940338 333.677795,256.895966 337.301361,255.596985 
	C340.097717,254.594559 343.115631,254.187073 345.866913,253.092438 
	C347.105194,252.599777 347.933533,251.076752 348.947876,250.021240 
	C347.638458,249.293457 346.206451,247.802109 345.043854,247.988754 
	C342.175720,248.449234 339.431213,249.679596 335.998627,250.810852 
	C335.306488,249.858719 334.289673,248.460007 333.204681,246.967468 
	C338.214447,241.675995 344.177826,240.429352 350.303345,242.441101 
	C352.744446,243.242828 355.058929,246.446091 356.056610,249.077225 
	C357.118622,251.878128 356.553528,255.295959 356.698547,258.914490 
M340.157196,260.961121 
	C339.459229,264.606995 341.006989,266.298553 344.661255,265.994507 
	C348.373901,265.685638 349.934570,262.639618 349.027771,256.844147 
	C346.112396,258.007385 343.313110,259.124329 340.157196,260.961121 
z"/>
<path fill="#CE76E8" opacity="1.000000" stroke="none" 
	d="
M142.748413,250.078873 
	C142.750015,253.555069 142.743958,256.548584 142.756149,259.542053 
	C142.767395,262.306152 142.764053,265.007721 146.675919,265.149536 
	C150.366592,265.283325 152.417664,263.314331 152.860794,259.999756 
	C153.298340,256.726990 153.083145,253.364853 153.122070,250.041550 
	C153.150787,247.589447 153.127716,245.136719 153.127716,242.397156 
	C155.800125,242.397156 157.891174,242.397156 160.416595,242.397156 
	C160.416595,251.765213 160.416595,261.110168 160.416595,271.413696 
	C157.548340,270.818909 155.030838,270.296844 152.513336,269.774811 
	C152.558350,269.300293 152.603363,268.825775 152.648376,268.351257 
	C151.453339,269.173645 150.331985,270.140564 149.050644,270.793610 
	C143.191086,273.780182 135.848877,270.455658 135.332458,264.056366 
	C134.762558,256.994476 135.202347,249.851074 135.202347,242.419800 
	C137.664032,242.419800 139.748245,242.419800 142.748703,242.419800 
	C142.748703,244.798767 142.748703,247.197464 142.748413,250.078873 
z"/>
<path fill="#CC70E7" opacity="1.000000" stroke="none" 
	d="
M244.621918,269.473358 
	C242.282150,270.366211 240.024918,270.820038 237.079758,271.412201 
	C237.079758,265.141418 237.068359,259.853149 237.084061,254.564957 
	C237.093323,251.446533 237.118576,248.272629 232.850098,248.015640 
	C228.437256,247.749939 226.337997,250.429001 226.121048,254.372208 
	C225.830261,259.657928 226.049057,264.971649 226.049057,270.637329 
	C223.346588,270.637329 221.135452,270.637329 218.652893,270.637329 
	C218.530426,269.211670 218.327866,267.917480 218.323013,266.622589 
	C218.293198,258.663208 218.308044,250.703659 218.308044,242.869568 
	C224.574295,241.525055 224.616638,241.538986 226.163864,245.144897 
	C227.974182,244.131042 229.675583,242.747955 231.616959,242.167755 
	C238.803116,240.020065 244.204498,243.838959 244.636536,251.549927 
	C244.962143,257.361084 244.703217,263.204987 244.621918,269.473358 
z"/>
<path fill="#CD71E7" opacity="1.000000" stroke="none" 
	d="
M388.884796,264.725159 
	C386.262573,270.629700 381.455902,272.170990 376.015259,271.657043 
	C370.110870,271.099335 365.732758,268.034332 363.988770,262.034698 
	C362.259399,256.085510 362.762177,250.414230 367.097229,245.717072 
	C371.097595,241.382645 376.378021,240.507080 381.755829,242.221970 
	C384.484406,243.092102 386.788483,245.293259 390.183350,247.468658 
	C387.445465,249.470001 385.902405,250.597946 383.203156,252.571075 
	C382.585907,251.468719 382.107849,249.498840 381.271484,249.332657 
	C378.864288,248.854385 375.841766,248.222672 373.914764,249.251053 
	C369.820068,251.436249 369.784058,261.256531 373.574982,263.892151 
	C376.496002,265.923004 379.816132,265.917847 382.157776,263.157227 
	C385.454102,259.271118 387.239380,260.944916 388.884796,264.725159 
z"/>
<path fill="#CC6FE6" opacity="1.000000" stroke="none" 
	d="
M126.077057,254.897064 
	C126.588837,259.148560 124.265839,263.812042 129.753784,266.056122 
	C130.487854,266.356262 130.818024,268.912140 130.453293,270.167084 
	C130.225967,270.949280 128.371140,271.606018 127.196053,271.702576 
	C123.022842,272.045441 119.223015,269.277527 119.144600,265.307800 
	C118.919052,253.890976 119.065025,242.466812 119.065025,230.747406 
	C121.520775,230.747406 123.568726,230.747406 126.076996,230.747406 
	C126.076996,238.863007 126.076996,246.638107 126.077057,254.897064 
z"/>
<path fill="#D07BE9" opacity="1.000000" stroke="none" 
	d="
M259.880859,263.895813 
	C259.880768,266.347351 259.880768,268.313751 259.880768,270.654114 
	C257.220306,270.654114 255.005356,270.654114 252.451614,270.654114 
	C252.451614,261.306793 252.451614,252.073334 252.451614,242.454453 
	C254.790588,242.454453 257.000336,242.454453 259.880951,242.454453 
	C259.880951,249.529205 259.880951,256.469940 259.880859,263.895813 
z"/>
<path fill="#CD71E7" opacity="1.000000" stroke="none" 
	d="
M251.428345,234.893463 
	C252.923386,233.097916 254.338120,230.768433 256.057068,230.516754 
	C257.355469,230.326660 259.816711,232.560242 260.296173,234.155258 
	C260.639465,235.297287 258.895966,237.938873 257.490967,238.550842 
	C254.648712,239.788742 252.364120,238.413864 251.428345,234.893463 
z"/>
<path fill="#FCF7FE" opacity="1.000000" stroke="none" 
	d="
M284.381348,248.979996 
	C281.507965,249.025497 279.058868,249.025497 276.352356,249.025497 
	C276.352356,245.544495 276.352356,242.624985 276.352356,239.740097 
	C283.473999,237.967072 287.035156,238.717621 288.180878,242.364487 
	C289.177368,245.536301 288.213196,247.917526 284.381348,248.979996 
z"/>
<path fill="#FCF7FE" opacity="1.000000" stroke="none" 
	d="
M94.279114,246.409866 
	C94.939720,244.526917 95.465469,243.007385 96.473351,240.094345 
	C98.407051,245.942581 99.909157,250.485535 101.602303,255.606262 
	C97.917831,255.606262 95.076599,255.606262 91.571480,255.606262 
	C92.512497,252.375519 93.328377,249.574402 94.279114,246.409866 
z"/>
<path fill="#F9EFFC" opacity="1.000000" stroke="none" 
	d="
M314.239014,253.874008 
	C312.491180,253.814713 311.176453,253.755569 309.594452,253.684387 
	C309.868317,249.211090 312.431702,247.109634 316.311371,247.283966 
	C319.698395,247.436188 321.785553,249.462021 320.572784,253.874146 
	C318.598694,253.874146 316.635406,253.874146 314.239014,253.874008 
z"/>
<path fill="#FCF7FE" opacity="1.000000" stroke="none" 
	d="
M340.335510,260.601196 
	C343.313110,259.124329 346.112396,258.007385 349.027771,256.844147 
	C349.934570,262.639618 348.373901,265.685638 344.661255,265.994507 
	C341.006989,266.298553 339.459229,264.606995 340.335510,260.601196 
z"/>
</svg>